<svg width="32" height="32" viewBox="0 0 64 64" fill="none" xmlns="http://www.w3.org/2000/svg" style="max-width:100%;height:auto;"><rect width="64" height="64" fill="#1D2127" /><defs><linearGradient id="grad_m_v1" x1="16" y1="20" x2="16" y2="46" gradientUnits="userSpaceOnUse"><stop offset="0" stop-color="white" /><stop offset="0.5" stop-color="#EAF6FF" /><stop offset="1" stop-color="#CFE8EF" /></linearGradient><linearGradient id="grad_m_v2" x1="32" y1="20" x2="32" y2="46" gradientUnits="userSpaceOnUse"><stop offset="0" stop-color="white" /><stop offset="0.5" stop-color="#EAF6FF" /><stop offset="1" stop-color="#CFE8EF" /></linearGradient><linearGradient id="grad_m_d1" x1="16" y1="20" x2="1600" y2="1400" gradientUnits="userSpaceOnUse"><stop offset="0" stop-color="white" /><stop offset="0.5" stop-color="#EAF6FF" /><stop offset="1" stop-color="#CFE8EF" /></linearGradient><linearGradient id="grad_m_d2" x1="32" y1="20" x2="1600" y2="1400" gradientUnits="userSpaceOnUse"><stop offset="0" stop-color="white" /><stop offset="0.5" stop-color="#EAF6FF" /><stop offset="1" stop-color="#CFE8EF" /></linearGradient><linearGradient id="grad_l_v" x1="38" y1="20" x2="38" y2="46" gradientUnits="userSpaceOnUse"><stop offset="0" stop-color="white" /><stop offset="0.5" stop-color="#EAF6FF" /><stop offset="1" stop-color="#CFE8EF" /></linearGradient><linearGradient id="grad_l_h" x1="38" y1="46" x2="48" y2="46" gradientUnits="userSpaceOnUse"><stop offset="0" stop-color="white" /><stop offset="0.5" stop-color="#EAF6FF" /><stop offset="1" stop-color="#CFE8EF" /></linearGradient><linearGradient id="paint_outer_m1" x1="12.5" y1="16.5" x2="716" y2="720" gradientUnits="userSpaceOnUse"><stop offset="0" stop-color="#4573DF" /><stop offset="1" stop-color="#2D4FA2" /></linearGradient><linearGradient id="paint_mid_m1" x1="13.2" y1="17.2" x2="576" y2="580" gradientUnits="userSpaceOnUse"><stop offset="0" stop-color="#4573DF" /><stop offset="1" stop-color="#2D4FA2" /></linearGradient><linearGradient id="paint_inner_m1" x1="14.8" y1="18.8" x2="256" y2="260" gradientUnits="userSpaceOnUse"><stop offset="0" stop-color="white" /><stop offset="0.5" stop-color="#EAF6FF" /><stop offset="1" stop-color="#CFE8EF" /></linearGradient><linearGradient id="paint_outer_m2" x1="28.5" y1="16.5" x2="732" y2="720" gradientUnits="userSpaceOnUse"><stop offset="0" stop-color="#4573DF" /><stop offset="1" stop-color="#2D4FA2" /></linearGradient><linearGradient id="paint_mid_m2" x1="29.2" y1="17.2" x2="592" y2="580" gradientUnits="userSpaceOnUse"><stop offset="0" stop-color="#4573DF" /><stop offset="1" stop-color="#2D4FA2" /></linearGradient><linearGradient id="paint_inner_m2" x1="30.8" y1="18.8" x2="272" y2="260" gradientUnits="userSpaceOnUse"><stop offset="0" stop-color="white" /><stop offset="0.5" stop-color="#EAF6FF" /><stop offset="1" stop-color="#CFE8EF" /></linearGradient><linearGradient id="paint_outer_m3" x1="20.5" y1="28.5" x2="724" y2="732" gradientUnits="userSpaceOnUse"><stop offset="0" stop-color="#4573DF" /><stop offset="1" stop-color="#2D4FA2" /></linearGradient><linearGradient id="paint_mid_m3" x1="21.2" y1="29.2" x2="584" y2="592" gradientUnits="userSpaceOnUse"><stop offset="0" stop-color="#4573DF" /><stop offset="1" stop-color="#2D4FA2" /></linearGradient><linearGradient id="paint_inner_m3" x1="22.8" y1="30.8" x2="264" y2="272" gradientUnits="userSpaceOnUse"><stop offset="0" stop-color="white" /><stop offset="0.5" stop-color="#EAF6FF" /><stop offset="1" stop-color="#CFE8EF" /></linearGradient><linearGradient id="paint_outer_l1" x1="34.5" y1="16.5" x2="738" y2="720" gradientUnits="userSpaceOnUse"><stop offset="0" stop-color="#4573DF" /><stop offset="1" stop-color="#2D4FA2" /></linearGradient><linearGradient id="paint_mid_l1" x1="35.2" y1="17.2" x2="598" y2="580" gradientUnits="userSpaceOnUse"><stop offset="0" stop-color="#4573DF" /><stop offset="1" stop-color="#2D4FA2" /></linearGradient><linearGradient id="paint_inner_l1" x1="36.8" y1="18.8" x2="278" y2="260" gradientUnits="userSpaceOnUse"><stop offset="0" stop-color="white" /><stop offset="0.5" stop-color="#EAF6FF" /><stop offset="1" stop-color="#CFE8EF" /></linearGradient><linearGradient id="paint_outer_l2" x1="34.5" y1="42.5" x2="738" y2="746" gradientUnits="userSpaceOnUse"><stop offset="0" stop-color="#4573DF" /><stop offset="1" stop-color="#2D4FA2" /></linearGradient><linearGradient id="paint_mid_l2" x1="35.2" y1="43.2" x2="598" y2="606" gradientUnits="userSpaceOnUse"><stop offset="0" stop-color="#4573DF" /><stop offset="1" stop-color="#2D4FA2" /></linearGradient><linearGradient id="paint_inner_l2" x1="36.8" y1="44.8" x2="278" y2="286" gradientUnits="userSpaceOnUse"><stop offset="0" stop-color="white" /><stop offset="0.5" stop-color="#EAF6FF" /><stop offset="1" stop-color="#CFE8EF" /></linearGradient><linearGradient id="paint_outer_l3" x1="44.5" y1="42.5" x2="748" y2="746" gradientUnits="userSpaceOnUse"><stop offset="0" stop-color="#4573DF" /><stop offset="1" stop-color="#2D4FA2" /></linearGradient><linearGradient id="paint_mid_l3" x1="45.2" y1="43.2" x2="608" y2="606" gradientUnits="userSpaceOnUse"><stop offset="0" stop-color="#4573DF" /><stop offset="1" stop-color="#2D4FA2" /></linearGradient><linearGradient id="paint_inner_l3" x1="46.8" y1="44.8" x2="288" y2="286" gradientUnits="userSpaceOnUse"><stop offset="0" stop-color="white" /><stop offset="0.5" stop-color="#EAF6FF" /><stop offset="1" stop-color="#CFE8EF" /></linearGradient></defs><path d="M16 46V20" stroke="url(#grad_m_v1)" stroke-width="3.2" stroke-linecap="round" stroke-linejoin="round" /><path d="M32 46V20" stroke="url(#grad_m_v2)" stroke-width="3.2" stroke-linecap="round" stroke-linejoin="round" /><path d="M16 20L24 32" stroke="url(#grad_m_d1)" stroke-width="3.2" stroke-linecap="round" stroke-linejoin="round" /><path d="M32 20L24 32" stroke="url(#grad_m_d2)" stroke-width="3.2" stroke-linecap="round" stroke-linejoin="round" /><path d="M38 20V46" stroke="url(#grad_l_v)" stroke-width="3.2" stroke-linecap="round" stroke-linejoin="round" /><path d="M38 46H48" stroke="url(#grad_l_h)" stroke-width="3.2" stroke-linecap="round" stroke-linejoin="round" /><path d="M12 40L6 32L12 24" stroke="#4573DF" stroke-width="2.2" stroke-linecap="round" stroke-linejoin="round" /><path d="M52 24L58 32L52 40" stroke="#4573DF" stroke-width="2.2" stroke-linecap="round" stroke-linejoin="round" /><path opacity="0.6" d="M16 23.5C17.933 23.5 19.5 21.933 19.5 20C19.5 18.067 17.933 16.5 16 16.5C14.067 16.5 12.5 18.067 12.5 20C12.5 21.933 14.067 23.5 16 23.5Z" fill="url(#paint_outer_m1)" /><path d="M16 22.8C17.5464 22.8 18.8 21.5464 18.8 20C18.8 18.4536 17.5464 17.2 16 17.2C14.4536 17.2 13.2 18.4536 13.2 20C13.2 21.5464 14.4536 22.8 16 22.8Z" fill="url(#paint_mid_m1)" /><path opacity="0.9" d="M16 21.2C16.6627 21.2 17.2 20.6627 17.2 20C17.2 19.3373 16.6627 18.8 16 18.8C15.3373 18.8 14.8 19.3373 14.8 20C14.8 20.6627 15.3373 21.2 16 21.2Z" fill="url(#paint_inner_m1)" /><path opacity="0.6" d="M32 23.5C33.933 23.5 35.5 21.933 35.5 20C35.5 18.067 33.933 16.5 32 16.5C30.067 16.5 28.5 18.067 28.5 20C28.5 21.933 30.067 23.5 32 23.5Z" fill="url(#paint_outer_m2)" /><path d="M32 22.8C33.5464 22.8 34.8 21.5464 34.8 20C34.8 18.4536 33.5464 17.2 32 17.2C30.4536 17.2 29.2 18.4536 29.2 20C29.2 21.5464 30.4536 22.8 32 22.8Z" fill="url(#paint_mid_m2)" /><path opacity="0.9" d="M32 21.2C32.6627 21.2 33.2 20.6627 33.2 20C33.2 19.3373 32.6627 18.8 32 18.8C31.3373 18.8 30.8 19.3373 30.8 20C30.8 20.6627 31.3373 21.2 32 21.2Z" fill="url(#paint_inner_m2)" /><path opacity="0.6" d="M24 35.5C25.933 35.5 27.5 33.933 27.5 32C27.5 30.067 25.933 28.5 24 28.5C22.067 28.5 20.5 30.067 20.5 32C20.5 33.933 22.067 35.5 24 35.5Z" fill="url(#paint_outer_m3)" /><path d="M24 34.8C25.5464 34.8 26.8 33.5464 26.8 32C26.8 30.4536 25.5464 29.2 24 29.2C22.4536 29.2 21.2 30.4536 21.2 32C21.2 33.5464 22.4536 34.8 24 34.8Z" fill="url(#paint_mid_m3)" /><path opacity="0.9" d="M24 33.2C24.6627 33.2 25.2 32.6627 25.2 32C25.2 31.3373 24.6627 30.8 24 30.8C23.3373 30.8 22.8 31.3373 22.8 32C22.8 32.6627 23.3373 33.2 24 33.2Z" fill="url(#paint_inner_m3)" /><path opacity="0.6" d="M38 23.5C39.933 23.5 41.5 21.933 41.5 20C41.5 18.067 39.933 16.5 38 16.5C36.067 16.5 34.5 18.067 34.5 20C34.5 21.933 36.067 23.5 38 23.5Z" fill="url(#paint_outer_l1)" /><path d="M38 22.8C39.5464 22.8 40.8 21.5464 40.8 20C40.8 18.4536 39.5464 17.2 38 17.2C36.4536 17.2 35.2 18.4536 35.2 20C35.2 21.5464 36.4536 22.8 38 22.8Z" fill="url(#paint_mid_l1)" /><path opacity="0.9" d="M38 21.2C38.6627 21.2 39.2 20.6627 39.2 20C39.2 19.3373 38.6627 18.8 38 18.8C37.3373 18.8 36.8 19.3373 36.8 20C36.8 20.6627 37.3373 21.2 38 21.2Z" fill="url(#paint_inner_l1)" /><path opacity="0.6" d="M38 49.5C39.933 49.5 41.5 47.933 41.5 46C41.5 44.067 39.933 42.5 38 42.5C36.067 42.5 34.5 44.067 34.5 46C34.5 47.933 36.067 49.5 38 49.5Z" fill="url(#paint_outer_l2)" /><path d="M38 48.8C39.5464 48.8 40.8 47.5464 40.8 46C40.8 44.4536 39.5464 43.2 38 43.2C36.4536 43.2 35.2 44.4536 35.2 46C35.2 47.5464 36.4536 48.8 38 48.8Z" fill="url(#paint_mid_l2)" /><path opacity="0.9" d="M38 47.2C38.6627 47.2 39.2 46.6627 39.2 46C39.2 45.3373 38.6627 44.8 38 44.8C37.3373 44.8 36.8 45.3373 36.8 46C36.8 46.6627 37.3373 47.2 38 47.2Z" fill="url(#paint_inner_l2)" /><path opacity="0.6" d="M48 49.5C49.933 49.5 51.5 47.933 51.5 46C51.5 44.067 49.933 42.5 48 42.5C46.067 42.5 44.5 44.067 44.5 46C44.5 47.933 46.067 49.5 48 49.5Z" fill="url(#paint_outer_l3)" /><path d="M48 48.8C49.5464 48.8 50.8 47.5464 50.8 46C50.8 44.4536 49.5464 43.2 48 43.2C46.4536 43.2 45.2 44.4536 45.2 46C45.2 47.5464 46.4536 48.8 48 48.8Z" fill="url(#paint_mid_l3)" /><path opacity="0.9" d="M48 47.2C48.6627 47.2 49.2 46.6627 49.2 46C49.2 45.3373 48.6627 44.8 48 44.8C47.3373 44.8 46.8 45.3373 46.8 46C46.8 46.6627 47.3373 47.2 48 47.2Z" fill="url(#paint_inner_l3)" /></svg>