<svg width="24" height="24" viewBox="0 0 24 24" fill="none" xmlns="http://www.w3.org/2000/svg" role="img" aria-label="AI Brain">
  <title>AI Brain</title>
  <desc>Stylized brain icon with circuit patterns representing artificial intelligence</desc>
  <path d="M9.5 2a6.5 6.5 0 0 1 4.64 11H14a6 6 0 1 1-5.93 7c-.13-.39-.07-.68.14-.93" stroke="currentColor" stroke-width="2" stroke-linecap="round" stroke-linejoin="round" fill="none"/>
  <path d="M14 13a4.5 4.5 0 0 0-3-4 4.5 4.5 0 0 0-4 7 3.5 3.5 0 0 0-3-7 6 6 0 1 0 10 6z" stroke="currentColor" stroke-width="2" stroke-linecap="round" stroke-linejoin="round" fill="none"/>
  <!-- Circuit pattern overlay -->
  <g opacity="0.6">
    <circle cx="12" cy="8" r="1" fill="currentColor"/>
    <circle cx="9" cy="11" r="1" fill="currentColor"/>
    <circle cx="15" cy="11" r="1" fill="currentColor"/>
    <line x1="12" y1="8" x2="9" y2="11" stroke="currentColor" stroke-width="1" opacity="0.4"/>
    <line x1="12" y1="8" x2="15" y2="11" stroke="currentColor" stroke-width="1" opacity="0.4"/>
  </g>
</svg>